<svg xmlns="http://www.w3.org/2000/svg" viewBox="0 0 512 512">
  <path fill="#32BCAD" d="M112.57 391.19c20.056 0 38.928-7.808 53.12-22l76.693-76.692c5.385-5.404 14.765-5.384 20.15 0l76.989 76.989c14.191 14.172 33.045 21.98 53.12 21.98h15.098l-97.138 97.139c-30.326 30.344-79.505 30.344-109.85 0l-97.415-97.416h9.232z"/>
  <path fill="#32BCAD" d="M112.57 120.81c20.056 0 38.928 7.808 53.12 22l76.693 76.692c5.551 5.57 14.6 5.57 20.15 0l76.989-76.989c14.191-14.172 33.045-21.98 53.12-21.98h15.098L310.602 23.395c-30.326-30.344-79.505-30.344-109.85 0L103.338 120.81h9.232z"/>
  <path fill="#32BCAD" d="M488.605 201.4l-56.536-56.555h-38.4c-11.988 0-23.271 4.669-31.77 13.155l-76.988 76.989c-8.166 8.185-19.053 12.69-30.66 12.69-11.608 0-22.495-4.505-30.66-12.69l-76.694-76.693c-8.5-8.5-19.762-13.155-31.75-13.155H78.5l-55.067 55.086c-30.326 30.344-30.326 79.505 0 109.85l55.067 55.086h36.646c11.988 0 23.271-4.669 31.77-13.155l76.694-76.694c16.348-16.348 44.971-16.352 61.32 0l76.989 76.989c8.5 8.5 19.762 13.155 31.75 13.155h38.547l56.389-56.406c30.326-30.344 30.326-79.524 0-109.85z"/>
</svg>